<svg id="Livello_1" data-name="Livello 1" xmlns="http://www.w3.org/2000/svg" viewBox="0 0 400 400"><title>ic_BB</title><path d="M18.58,279.08q7.2-48.1,11.13-92.64t3.94-80.84q0-36.3-4.79-47.6,28.43,9.59,35.62,30.14,26.72-14.73,54.8-14.73t49.15,15.41q21.06,15.42,20.89,41.44t-17,45.22q-16.79,19.19-47.6,29.45,24,5.15,43.49,23.12t19.53,44.35q0,40.43-28.26,62.17t-70.9,21.75Q46,356.32,11.05,330,11.38,327.21,18.58,279.08ZM154.21,140.71q0-19-12.33-30.48T108.32,98.75a90.34,90.34,0,0,0-39.73,8.91q0,21.57-9.08,107.72T50.43,325.83A102.29,102.29,0,0,0,84.68,332q29.46,0,48.64-16.95t19.18-45.73q0-21.57-19.69-37.85T78.18,213.84l-1-12.33q36.3-4.45,56.68-23.12T154.21,140.71Z"/><path d="M217.26,279.08q7.2-48.1,11.13-92.64t3.94-80.84q0-36.3-4.8-47.6Q256,67.59,263.16,88.14,289.88,73.41,318,73.41t49.15,15.41q21.06,15.42,20.89,41.44t-17,45.22q-16.79,19.19-47.6,29.45,24,5.15,43.49,23.12t19.53,44.35q0,40.43-28.26,62.17t-70.9,21.75q-42.65,0-77.58-26.37Q210.07,327.21,217.26,279.08ZM352.89,140.71q0-19-12.33-30.48T307,98.75a90.34,90.34,0,0,0-39.73,8.91q0,21.57-9.08,107.72t-9.08,110.45A102.29,102.29,0,0,0,283.36,332q29.46,0,48.64-16.95t19.18-45.73q0-21.57-19.7-37.85t-54.62-17.63l-1-12.33q36.3-4.45,56.68-23.12T352.89,140.71Z"/></svg>