<svg id="Livello_1" data-name="Livello 1" xmlns="http://www.w3.org/2000/svg" viewBox="0 0 400 400"><title>ic_cookies</title><path d="M199.5,11C95,11,10,96,10,200.5S95,390,199.5,390,389,305,389,200.5c0-6-.45-11.82-.83-16.23a9,9,0,0,0-13.83-6.84,31.36,31.36,0,0,1-46.22-14.91,9,9,0,0,0-12.67-4.6A54.14,54.14,0,0,1,242.1,84.55a9,9,0,0,0-4.6-12.67,31.35,31.35,0,0,1-14.93-46.22,9,9,0,0,0-6.86-13.85C211,11.4,205.33,11,199.5,11Zm117.31,0a18.05,18.05,0,1,0,18.05,18.05A18,18,0,0,0,316.81,11ZM303.27,83.19a13.54,13.54,0,1,0,13.54,13.54A13.54,13.54,0,0,0,303.27,83.19ZM167.92,110.26a13.54,13.54,0,1,1-13.54,13.54A13.54,13.54,0,0,1,167.92,110.26Zm212.06,0a9,9,0,1,0,9,9A9,9,0,0,0,380,110.26ZM109.26,155.38a27.07,27.07,0,1,1-27.07,27.07A27.07,27.07,0,0,1,109.26,155.38ZM195,191.48A13.54,13.54,0,1,1,181.45,205,13.53,13.53,0,0,1,195,191.48Zm-67.68,63.16a18.05,18.05,0,1,1-18,18.05A18,18,0,0,1,127.31,254.64Zm121.82,9a22.56,22.56,0,1,1-22.56,22.56A22.55,22.55,0,0,1,249.13,263.67Z"/></svg>