<svg id="Livello_1" data-name="Livello 1" xmlns="http://www.w3.org/2000/svg" viewBox="0 0 400 400"><title>ic_filter</title><path d="M383.3,308.67v27.8H284.81c-.85,2.26-1.53,4.1-2.23,5.94-9.55,25.1-35.25,40.24-60.82,35.83-27.68-4.77-47.26-27.42-47.54-55-.28-26.76,18.69-50.45,44.45-55.5,27.07-5.31,53.52,8.71,63.35,34.31,2.11,5.5,4.72,6.81,10.13,6.76,26.83-.26,53.67-.12,80.5-.12ZM230.15,294.4c-16,.13-28.1,12.29-28.08,28.34a28.34,28.34,0,1,0,56.67-.47C258.46,306.27,246.15,294.27,230.15,294.4Z"/><path d="M71.54,213.71h-55V186.54H71.38c16.82-34.68,39-48.06,67.5-41.28,26.55,6.31,44,28.75,43.56,56.13a55.87,55.87,0,0,1-45,53.71C109,260.9,86.38,246.84,71.54,213.71Zm26.61-14.17c-.11,16.11,11.91,28.65,27.66,28.84a28.4,28.4,0,1,0,.87-56.79A27.87,27.87,0,0,0,98.15,199.54Z"/><path d="M331.87,63.34h51.81V91.26c-14,0-27.89.41-41.76-.17-7.2-.31-10.73,1.48-13.66,8.72-10.05,24.87-36.43,37.91-63,32.32-26.08-5.48-44.29-29-43.76-56.61.52-26.85,19.92-48.95,47.19-53.76,25-4.4,51.19,10.65,60.76,34.94C330.25,58.77,331,60.88,331.87,63.34Zm-55.43,42.18c16.31.09,28.9-12.28,28.85-28.35-.05-15.37-13-28.27-28.5-28.36a28,28,0,0,0-28.25,28.28C248.54,93.26,260.49,105.43,276.44,105.52Z"/><path d="M16.41,90.81V63.75H193V90.81Z"/><path d="M383.15,213.44H210V186.78H383.15Z"/><path d="M147.18,309.19v27H16.62v-27Z"/></svg>