<svg id="Livello_1" data-name="Livello 1" xmlns="http://www.w3.org/2000/svg" viewBox="0 0 400 400"><title>Tavola disegno 1</title><path d="M11,202.72q0-32.49,0-65c0-6.36,1.8-8.68,7.77-10.35Q107.39,102.49,196,77.67a14.19,14.19,0,0,1,7.29,0q86.25,24.12,172.42,48.48c1.76.5,3.55.89,5.31,1.39,5.63,1.6,7.73,4.81,7.72,10.54q-.09,65,0,130c0,5.47-2.21,8.56-7.61,10.08Q292.08,303.13,203,328.17a12.15,12.15,0,0,1-6.25.08q-89.36-25-178.67-50.2c-4.91-1.38-7.12-4.27-7.1-9.34C11,246.71,11,224.72,11,202.72Zm179.84,106V97.21a11.24,11.24,0,0,0-1.78.17q-78.75,22.16-157.54,44.21c-3.68,1-3.54,3.1-3.54,5.85,0,37,.08,74-.07,111,0,3.72,1.18,5,4.68,6,39.73,11.05,79.41,22.32,119.1,33.49C164.64,301.53,177.6,305.09,190.84,308.77Zm17.58-212V308.66c1.73-.39,3.18-.65,4.59-1.05Q289.87,286,366.74,264.45c3.87-1.08,4.85-2.74,4.83-6.51q-.19-54.75,0-109.49c0-4.53-1.37-6.29-5.62-7.47-34.64-9.55-69.21-19.33-103.8-29Z"/><path d="M160,206.3c0,13.82,0,27.63,0,41.45a46.36,46.36,0,0,1-.46,7.46c-1.27,7.63-5.29,11.42-13,10.67-13.06-1.27-26-3.34-39-5.12-11.37-1.55-22.72-3.23-34.1-4.72-10.53-1.38-15.48-6.65-15.51-17.13q-.09-32.22,0-64.43c0-12.23,3.25-16.25,15.28-18.07q35.52-5.37,71.12-10.1c9.75-1.31,15.23,3.35,15.48,13.55.39,15.47.1,31,.1,46.44Zm-12.36,48.48a43,43,0,0,0,.5-4.31c0-29.32,0-58.64.08-88,0-3.94-1.48-4.88-5.1-4.35-22.56,3.32-45.12,6.6-67.7,9.71-4.7.65-6,3.11-6,7.45.13,15.31,0,30.63.06,45.94a32.59,32.59,0,0,0,.4,3.53l.85,0,12.91-48.62,23.64,40.48,15.74-21.15,22.83,47.09-75.76-7.25c-1.17,7.31-.68,8.18,5.88,9.13,15.48,2.24,31,4.32,46.47,6.52C130.69,252.19,138.88,253.47,147.64,254.78Z"/><path d="M241.82,205.92c0-15.65-.32-31.3.12-46.93.27-9.57,5.69-14,15.14-12.69q36.82,5,73.57,10.63c8.79,1.35,12.38,5.09,12.7,14,.55,15.3.38,30.62.48,45.93,0,7.32.12,14.65,0,22-.21,10.46-5.32,15.84-15.58,17.26q-33.86,4.68-67.67,9.64c-13.13,1.94-18.42-2.18-19-15.32-.06-1.33,0-2.67,0-4V205.92Zm89.33,20.65.85-.13c0-17.08-.11-34.16.07-51.24.05-4.85-1.95-6.78-6.6-7.42q-33.36-4.59-66.68-9.6c-4.69-.7-5.71,1-5.69,5.34q.19,42.72,0,85.45c0,4.35,1,5.92,5.69,5.2,22.2-3.38,44.46-6.42,66.68-9.67,6.61-1,7.27-2.13,5.9-9.14l-75.82,7.28,22.92-47.14,15.65,21.23,23.66-40.52C322.42,193.68,326.78,210.12,331.15,226.57Z"/></svg>