<svg id="Livello_1" data-name="Livello 1" xmlns="http://www.w3.org/2000/svg" viewBox="0 0 400 400"><title>ic_privacy</title><path d="M200.14,9C140.23,9,91.29,58,91.29,117.86V136A36.29,36.29,0,0,0,55,172.29V353.71A36.29,36.29,0,0,0,91.29,390H309a36.29,36.29,0,0,0,36.29-36.29V172.29A36.29,36.29,0,0,0,309,136V117.86C309,58,260,9,200.14,9Zm0,36.29a72.3,72.3,0,0,1,72.57,72.57V136H127.57V117.86A72.3,72.3,0,0,1,200.14,45.29Zm0,145.14A72.57,72.57,0,1,1,127.57,263,72.57,72.57,0,0,1,200.14,190.43Zm0,36.28A36.29,36.29,0,1,0,236.43,263a38,38,0,0,0-1.7-10.77A18.39,18.39,0,0,1,218.29,263a18.15,18.15,0,0,1-18.15-18.14,18.36,18.36,0,0,1,10.78-16.44A37.69,37.69,0,0,0,200.14,226.71Z"/></svg>