<svg id="Livello_1" data-name="Livello 1" xmlns="http://www.w3.org/2000/svg" viewBox="0 0 400 400"><title>ic_pen_1</title><path d="M97.94,9.5a70.55,70.55,0,0,1,7.6,2.69c5.33,2.57,8.28,7.26,10.12,12.65,9.12,26.79,18.31,53.57,27.22,80.44,4,11.93,7.42,24,14.58,34.57a13.66,13.66,0,0,1,.86,2c-31.43-1.16-56.9,9.85-75,34.63-6.22-12.06-12.05-24.39-18.79-36.2C56.3,126,47.23,112.18,38.74,98c-6-9.93-11.6-20-17.29-30.12C16,58.33,16.8,51.33,23.66,42.51,30.86,33.25,40.84,27.9,51,22.76,62.42,17,74.25,12.11,87,10c.21,0,.37-.3.56-.45Z"/><path d="M226.72,373.27l4-1.6c-1.42-3.27-2.82-6.52-4.25-9.76-9.67-21.84-19.39-43.66-28.94-65.55a11.27,11.27,0,0,1-.54-6.18c.94-5.21-2.36-12.22-7.12-14.26-4.17-1.79-7.62.17-8.33,4.74A13.84,13.84,0,0,0,188,294.21a6.91,6.91,0,0,1,2.74,2.67q17.79,39.58,35.42,79.25a15.57,15.57,0,0,1,.45,1.56c-3.23.46-4.58-1.84-6-3.65a159.73,159.73,0,0,0-26.75-27c-9.73-7.66-20-14.36-32.05-17.94-5.27-1.57-8.29-4.59-10.09-10q-15-45.41-30.74-90.56c-2.17-6.24-.73-11.16,3.3-15.6,8-8.83,18.57-12.86,30-14.5,4.87-.7,10-.08,15,.59,4.27.58,7,3.51,8.9,7.5,12.78,26.39,26.08,52.51,41.71,77.36,3,4.8,6.4,9.37,9.33,14.21a12,12,0,0,1,1.91,6.14,166.72,166.72,0,0,1-1.41,17.29c-1.56,11.91.11,23.61,1.77,35.32.64,4.51,1.24,9,2.12,13.51a3.57,3.57,0,0,0,2.31,2.38c27.09,2.67,54.13,7,81.45,5.14,11.25-.74,22.37-3.25,33.55-5a10.55,10.55,0,0,0,2-.76l.31-1.18c-6.84-2.54-13.55-5.58-20.56-7.51-11.51-3.17-23.34-5.17-34.78-8.54-7-2.07-13.69-5.45-20.19-8.86-5-2.62-4.58-8.18.27-11.12,11.06-6.7,23.25-10.63,35.42-14.61s24.47-7.88,35.08-15.29a58.44,58.44,0,0,0,11.81-11c4.84-6,4.77-12.53-.56-18.13-4.78-5-10.48-9.27-16.12-13.4-6.25-4.58-13-8.53-19.32-13a35.88,35.88,0,0,1-6.49-6c-7.4-8.56-7.12-17.42,1.2-25.14,8.58-8,17.79-15.25,26.29-23.3a160.3,160.3,0,0,0,18-19.46c8.24-10.92,10.39-23.46,6.84-36.81-.5-1.87-1-3.75-1.44-5.62l.91-.38a84.35,84.35,0,0,1,4.08,8.4c5.93,16.5,6.62,32.78-2.85,48.37-4.86,8-11.46,14.41-19,20-5.34,3.95-10.49,8.18-15.58,12.45A22.54,22.54,0,0,0,332,227c-3.53,5.48-3.43,10.77,1.45,15,4.57,4,9.94,7.17,15.24,10.21,5.76,3.31,12,5.72,17.71,9.14a51,51,0,0,1,10.85,8.79c7.1,7.58,7,16.62.47,24.74-5.43,6.73-12.23,11.78-19.52,16.23-18.26,11.17-38.16,18.86-57.83,27-2,.83-4,1.7-5.95,2.55l-.13,1.29c7.87,2.15,15.71,4.36,23.6,6.44,10.82,2.84,21.75,5.28,32.47,8.46,7.28,2.16,13.45,6.59,19,11.83,2.33,2.21,3.52,4.8,2.73,7.95s-3.54,3.37-6.11,3.91c-21.62,4.52-43.35,8.44-65.55,7.72-19.95-.65-39.91-1.74-59.4-6.6-3.52-.88-6.84-2.71-10.08-4.44C229.41,376.44,228.34,374.85,226.72,373.27Z"/><path d="M177.7,201.29c-6.24-7.68-14.43-8.27-23-6.69A65.68,65.68,0,0,0,127,206.22c-7.36,5.47-11.62,12.34-8.29,22.41-5.67-.7-10.5-2-14.15-6.51-1.57-1.92-4-3.07-5.72-4.93-2.47-2.76-5.49-5.51-6.67-8.84-2.57-7.29-4.21-14.91-6-22.44a5.36,5.36,0,0,1,.93-3.93c18.11-24.17,42.7-34.67,72.46-34a5.22,5.22,0,0,1,3.51,2q8.3,11.31,16.29,22.86a11.54,11.54,0,0,1,1.83,4.35c.72,3.78,1.23,7.6,1.72,11.41Q183.8,195.48,177.7,201.29Z"/></svg>