<svg id="Livello_1" data-name="Livello 1" xmlns="http://www.w3.org/2000/svg" viewBox="0 0 400 400"><defs><style>.cls-1{fill:#fff;}</style></defs><title>ic_paperplane_notrace_w</title><path class="cls-1" d="M389.81,41.34c-1.7,8.9-3.51,17.79-5.09,26.71q-11,61.88-21.85,123.78Q352.78,249,342.64,306.16c-1.26,7.1-5.94,9.56-12.67,6.67l-66-28.31c-1.34-.58-2.7-1.08-4.23-1.69-8.86,11.8-17.65,23.48-26.41,35.19q-9,12-17.8,24a8,8,0,0,1-8.33,3.47c-3.38-.57-5.28-2.79-6.33-5.95-9.65-29.14-19.37-58.26-28.92-87.43-.85-2.59-2.62-3.24-4.73-3.94q-42.46-14.11-84.9-28.31a13.66,13.66,0,0,1-5.84-3.52c-3.33-3.81-1.77-9,3.27-12q23.89-13.91,47.84-27.74l245-141.86c.85-.5,1.71-1,2.56-1.48,7.16-4.32,9.51-4,14.64,2.15Z"/><path d="M389.81,41.34c-1.7,8.9-3.51,17.79-5.09,26.71q-11,61.88-21.85,123.78Q352.78,249,342.64,306.16c-1.26,7.1-5.94,9.56-12.67,6.67l-66-28.31c-1.34-.58-2.7-1.08-4.23-1.69-8.86,11.8-17.65,23.48-26.41,35.19q-9,12-17.8,24a8,8,0,0,1-8.33,3.47c-3.38-.57-5.28-2.79-6.33-5.95-9.65-29.14-19.37-58.26-28.92-87.43-.85-2.59-2.62-3.24-4.73-3.94q-42.46-14.11-84.9-28.31a13.66,13.66,0,0,1-5.84-3.52c-3.33-3.81-1.77-9,3.27-12q23.89-13.91,47.84-27.74l245-141.86c.85-.5,1.71-1,2.56-1.48,7.16-4.32,9.51-4,14.64,2.15Z"/><path class="cls-1" d="M367.78,73.33,367,73,236.55,255.59,328.64,295C341.75,220.79,354.76,147.06,367.78,73.33Z"/><path class="cls-1" d="M367.78,73.33,367,73,236.55,255.59,328.64,295C341.75,220.79,354.76,147.06,367.78,73.33Z"/><path class="cls-1" d="M101.9,209.7c2,.72,3.13,1.14,4.26,1.52,21.78,7.27,43.58,14.49,65.32,21.89,2.75.94,4.34.44,6.34-1.57q75.72-75.89,151.56-151.65c.84-.84,1.65-1.72,2.47-2.58l-.36-.53Z"/><path class="cls-1" d="M101.9,209.7c2,.72,3.13,1.14,4.26,1.52,21.78,7.27,43.58,14.49,65.32,21.89,2.75.94,4.34.44,6.34-1.57q75.72-75.89,151.56-151.65c.84-.84,1.65-1.72,2.47-2.58l-.36-.53Z"/><path class="cls-1" d="M206.38,305.83c.54-.8.84-1.07.91-1.38,3-15.18,6-30.37,9.08-45.54a13.32,13.32,0,0,1,2-5q48.53-68,97.17-136c.67-.93,1.24-1.93,1.86-2.9a2,2,0,0,0-1.41.63q-64,63.93-128,127.82c-1.67,1.66-1.47,3-.84,4.89q7.89,23.39,15.67,46.81Z"/><path class="cls-1" d="M206.38,305.83c.54-.8.84-1.07.91-1.38,3-15.18,6-30.37,9.08-45.54a13.32,13.32,0,0,1,2-5q48.53-68,97.17-136c.67-.93,1.24-1.93,1.86-2.9a2,2,0,0,0-1.41.63q-64,63.93-128,127.82c-1.67,1.66-1.47,3-.84,4.89q7.89,23.39,15.67,46.81Z"/><path class="cls-1" d="M230.25,270.1c-2.27,11.32-4.48,22.32-6.68,33.32l.7.35,20.57-27.41Z"/><path class="cls-1" d="M230.25,270.1c-2.27,11.32-4.48,22.32-6.68,33.32l.7.35,20.57-27.41Z"/></svg>