<svg id="Livello_1" data-name="Livello 1" xmlns="http://www.w3.org/2000/svg" viewBox="0 0 400 400"><title>ic_tripod</title><path d="M207,11l6.54,10.05c2.23,0,5.88.07,9.52,0,3.18-.07,6-.28,7,4,.27,1.15,4,2.11,6.09,2.12q54.41.18,108.79.09h8.14v8.38q0,113.43.07,226.85a16.24,16.24,0,0,0,1.69,7.53c4.61,8.33.86,15.56-8.62,15.6-24.11.12-48.22.05-72.32.05H266.4l20.62,51c2.93,7.24,6,14.44,8.79,21.73,2.18,5.64.54,10.15-4.05,11.82-4.17,1.52-8.27-.82-10.42-6.14-9.57-23.62-19.35-47.17-28.47-71-2.34-6.1-5.45-8-11.69-7.62-9.6.53-19.24.13-29.53.13v94.57a35.38,35.38,0,0,1-.11,5.55c-.7,4.35-3.07,7.26-7.79,7.18s-7.14-2.94-7.68-7.32A71.08,71.08,0,0,1,196,377V285.71c-12.41,0-24.11-.18-35.78.21-1.65.06-3.9,2.63-4.68,4.52-9.39,22.81-18.56,45.71-27.8,68.59-.77,1.91-1.56,3.8-2.36,5.7-1.91,4.6-5.15,7-10.2,5.46-4.54-1.41-6.27-5.9-4.18-11.22,5.66-14.35,11.51-28.63,17.29-42.92,4-9.85,8-19.69,12.29-30.34h-6.79c-24.1,0-48.21.05-72.32,0-10.5,0-14.17-6.8-9.14-15.94,1.19-2.15,1.4-5,1.4-7.59q.11-113.74.06-227.47V27.29h7.83q54.39,0,108.79,0c3.16,0,6.77.95,7.45-4.12.12-.88,2.85-1.9,4.42-2,4.29-.28,8.61-.09,11.63-.09l7-10.07ZM65.47,39.13V238.26c27-27.23,52.72-53.18,78.61-79.28,1.76,1.67,3.27,3,4.71,4.47q31,31,62,62.07c3.18,3.18,6.73,4.56,10.27,1.15s2.34-7-1-10.16c-1.35-1.28-2.63-2.62-3.94-3.93-11.52-11.41-23-22.83-34-33.68l87.45-87.69,71.77,72.19V39.27H233.3c1.28,5.66,2.42,10.74,3.61,16h-67c1.29-5.55,2.48-10.69,3.75-16.17Z"/><path d="M212.83,127.7C193.89,87.12,145.35,77.27,115,108c-17.37,17.54-21.38,38.86-13.74,62.18,3.34,10.17,4.42,9-5.21,17.66a68.23,68.23,0,0,1-10.9-42.69c2.24-31.61,23.72-57.26,54.24-65.35,29.26-7.75,60.31,4.11,77.92,29.77C223.58,118.74,223.58,118.75,212.83,127.7Z"/></svg>